<?xml version="1.0" standalone="no"?>
<!DOCTYPE svg PUBLIC "-//W3C//DTD SVG 20010904//EN"
 "http://www.w3.org/TR/2001/REC-SVG-20010904/DTD/svg10.dtd">
<svg version="1.0" xmlns="http://www.w3.org/2000/svg"
 width="1591.000000pt" height="1591.000000pt" viewBox="0 0 1591.000000 1591.000000"
 preserveAspectRatio="xMidYMid meet">
<metadata>
Created by potrace 1.14, written by Peter Selinger 2001-2017
</metadata>
<g transform="translate(0.000000,1591.000000) scale(0.100000,-0.100000)"
fill="#000000" stroke="none">
<path d="M2389 15779 c-8 -4 -46 -22 -86 -40 -39 -19 -69 -38 -66 -43 4 -5 1
-6 -5 -2 -6 3 -17 -1 -26 -9 -8 -9 -17 -15 -18 -15 -10 4 -37 -14 -32 -21 3
-5 -2 -6 -10 -3 -9 3 -16 1 -16 -4 0 -6 -9 -13 -19 -17 -11 -3 -38 -23 -61
-45 -23 -21 -44 -40 -48 -42 -19 -9 0 -218 20 -218 5 0 8 -6 8 -12 0 -17 62
-142 72 -146 4 -2 8 -10 8 -18 0 -8 4 -14 9 -14 5 0 12 -8 15 -17 3 -10 22
-36 41 -58 19 -22 45 -53 58 -69 34 -44 105 -114 126 -126 13 -7 22 -7 26 0 4
6 11 8 16 5 5 -4 9 -2 9 3 0 14 54 36 58 23 2 -6 9 -8 14 -5 6 4 8 2 5 -3 -4
-6 4 -22 18 -37 13 -14 19 -26 12 -26 -8 0 -6 -4 3 -11 12 -9 11 -10 -7 -6
-12 3 -23 1 -25 -4 -2 -5 -17 -12 -33 -15 -16 -3 -32 -8 -35 -12 -8 -12 -110
-63 -110 -56 0 4 -8 -3 -19 -14 -10 -12 -24 -22 -30 -22 -7 0 -9 -5 -5 -12 4
-7 4 -10 -1 -6 -16 14 -80 -30 -167 -114 -33 -32 -64 -58 -69 -58 -5 0 -9 -5
-9 -11 0 -6 -16 -25 -36 -42 -85 -75 -183 -175 -209 -214 -15 -24 -30 -43 -33
-43 -2 0 -36 29 -73 65 -38 36 -76 65 -83 65 -8 0 -21 7 -29 15 -21 20 -165
94 -172 87 -3 -3 -5 0 -5 6 0 7 -3 11 -7 10 -11 -2 -87 35 -91 45 -2 4 -10 7
-18 7 -9 0 -25 5 -37 12 -12 6 -35 13 -52 14 -16 1 -43 5 -59 8 -45 8 -156 18
-201 18 -38 0 -46 -1 -70 -7 -5 -1 -19 -3 -31 -3 -30 -3 -84 -55 -90 -88 -3
-16 -7 -33 -8 -39 -12 -47 -19 -65 -27 -65 -5 0 -9 -6 -9 -14 0 -8 -6 -21 -13
-28 -7 -7 -25 -42 -40 -78 -16 -36 -32 -74 -37 -85 -11 -24 -51 -143 -55 -165
-2 -8 -4 -15 -5 -15 -1 0 -3 -11 -6 -24 -2 -14 -12 -45 -20 -70 -19 -55 -19
-53 -29 -113 -4 -27 -10 -48 -14 -48 -4 0 -7 -10 -8 -22 0 -23 -8 -64 -17 -96
-3 -9 -7 -33 -10 -52 -3 -19 -8 -46 -11 -60 -14 -69 -18 -129 -19 -282 -1 -93
1 -168 4 -168 3 0 6 -51 7 -113 3 -144 27 -312 64 -445 17 -58 31 -127 33
-153 1 -26 14 -71 29 -100 14 -30 49 -117 78 -194 70 -189 129 -326 204 -475
98 -196 144 -268 285 -450 89 -114 113 -155 105 -180 -4 -12 0 -36 10 -56 9
-19 14 -47 13 -62 -6 -47 -45 -120 -67 -127 -12 -3 -21 -15 -21 -25 0 -10 -3
-20 -7 -22 -5 -2 -35 -43 -67 -93 -215 -324 -223 -333 -498 -540 -32 -24 -119
-73 -193 -109 -186 -90 -335 -189 -335 -222 0 -6 -6 -24 -14 -38 -31 -61 16
-106 139 -131 17 -4 54 -11 84 -16 30 -5 58 -12 62 -14 10 -7 198 -18 284 -18
114 1 231 38 334 106 41 28 43 28 36 7 -4 -12 -19 -41 -34 -63 -15 -23 -45
-69 -66 -102 -21 -33 -50 -78 -64 -100 -37 -57 -123 -176 -144 -200 -55 -61
-125 -128 -149 -142 -66 -40 -58 -92 19 -117 65 -21 136 -28 299 -28 153 -1
161 0 290 37 118 34 201 75 265 133 62 56 52 33 -31 -72 -61 -77 -107 -115
-246 -203 -108 -69 -157 -96 -234 -128 -36 -15 -92 -40 -125 -55 -33 -15 -87
-40 -120 -55 -166 -74 -188 -92 -166 -133 18 -33 349 -147 456 -157 38 -3 72
-8 75 -10 3 -2 39 -7 80 -11 187 -18 342 9 442 78 29 20 30 19 11 -29 -3 -10
-7 -20 -8 -23 -17 -63 -75 -213 -102 -265 -25 -46 -82 -132 -110 -165 -68 -79
-188 -255 -208 -303 -15 -36 -14 -37 10 -53 24 -16 32 -14 198 37 94 29 181
58 192 65 11 6 31 15 45 19 46 14 153 66 197 96 23 17 43 28 43 26 0 -17 -104
-248 -162 -357 -39 -74 -74 -147 -78 -162 -17 -57 46 -73 200 -50 41 6 94 14
118 17 54 8 116 29 167 59 39 23 184 166 218 216 9 13 17 18 17 11 0 -15 -68
-180 -82 -197 -4 -6 -20 -33 -34 -60 -45 -85 -131 -207 -189 -266 -30 -31 -55
-64 -55 -72 0 -18 42 -48 62 -45 7 2 31 -1 54 -5 22 -4 85 -7 140 -8 109 -1
194 17 306 62 38 15 68 25 68 22 0 -3 -11 -20 -25 -38 -14 -18 -25 -35 -25
-39 0 -3 -45 -73 -100 -155 -55 -82 -100 -156 -100 -164 0 -9 10 -21 22 -27
35 -19 309 -15 398 6 56 13 179 73 255 125 22 15 87 55 145 90 112 67 227 147
274 192 32 30 55 36 57 16 2 -40 12 -74 22 -80 7 -4 9 -8 4 -8 -4 0 -1 -15 6
-32 32 -77 31 -85 -17 -113 -33 -19 -51 -40 -71 -81 -17 -35 -32 -53 -40 -50
-39 14 -42 -298 -4 -338 15 -16 10 -33 -10 -39 -26 -7 -125 -160 -180 -281
-26 -55 -59 -122 -74 -148 -15 -25 -50 -97 -78 -160 -28 -62 -102 -218 -165
-345 -63 -128 -114 -237 -114 -243 0 -18 -12 -11 -59 33 -99 91 -125 108 -250
163 -62 27 -99 37 -142 38 -64 1 -85 -11 -93 -55 -4 -27 54 -156 94 -207 11
-14 20 -30 20 -38 0 -7 4 -14 8 -16 5 -1 27 -31 50 -65 23 -34 50 -64 60 -67
9 -3 53 -42 96 -85 l79 -79 -11 -39 c-39 -140 -53 -192 -58 -223 -3 -19 -7
-43 -10 -52 -15 -53 -28 -191 -29 -308 0 -86 2 -95 21 -105 16 -8 19 -16 13
-37 -12 -46 -2 -229 16 -288 19 -62 118 -265 136 -280 3 -3 13 -21 23 -40 16
-35 103 -154 163 -224 29 -35 31 -41 31 -123 0 -61 -4 -91 -14 -101 -8 -7 -14
-34 -15 -60 -2 -104 -23 -204 -80 -377 -28 -82 -53 -157 -56 -165 -4 -8 -7
-17 -8 -20 -12 -43 -70 -224 -80 -250 -13 -35 -62 -248 -69 -300 -8 -58 -24
-102 -59 -162 -21 -38 -43 -83 -47 -101 -5 -18 -31 -84 -59 -147 -28 -63 -73
-196 -100 -296 -27 -99 -68 -234 -91 -300 -71 -205 -108 -342 -97 -353 16 -16
43 -13 57 4 11 14 14 13 27 -5 l14 -20 3265 0 3265 0 9 23 9 22 0 -22 c1 -19
7 -23 36 -23 36 0 38 2 37 60 -1 57 -11 239 -16 290 -8 90 -18 221 -22 280 -1
30 -6 100 -9 155 l-7 100 24 -21 c38 -35 137 -98 233 -149 50 -26 108 -61 131
-76 84 -57 260 -116 404 -135 19 -3 42 -7 50 -10 8 -3 42 -8 75 -10 33 -3 85
-9 115 -14 95 -14 245 -4 360 23 100 24 132 27 145 14 30 -30 147 -107 155
-102 4 2 24 -17 46 -42 56 -68 154 -163 165 -163 6 0 7 -6 3 -12 -4 -7 -4 -10
1 -6 4 4 20 -1 34 -10 32 -22 124 -60 141 -59 3 0 15 -5 28 -12 63 -34 297
-30 355 6 6 4 17 8 24 9 18 3 123 69 154 96 34 31 126 143 140 171 8 17 4 15
-18 -8 -25 -28 -174 -132 -181 -127 -1 1 -12 -7 -24 -18 -12 -11 -28 -20 -35
-20 -7 0 -13 -3 -13 -8 0 -6 -41 -23 -85 -35 -5 -2 -19 -6 -30 -10 -11 -4 -41
-9 -67 -11 -51 -5 -64 8 -25 24 24 11 55 30 73 45 6 6 22 17 34 25 40 27 60
47 60 60 0 7 3 10 7 7 3 -4 12 -2 20 4 7 6 13 9 13 6 0 -6 57 54 115 121 16
18 43 40 60 48 16 8 57 34 90 58 33 25 75 55 94 68 18 13 51 40 73 60 21 21
40 36 42 35 2 -1 15 13 30 31 15 17 25 32 21 32 -3 0 5 12 18 26 14 14 35 49
48 78 13 28 28 54 34 58 5 4 6 8 1 8 -4 0 -1 11 8 25 9 14 14 25 10 25 -4 0
-1 7 6 15 7 8 10 15 6 15 -3 0 -1 11 4 24 9 25 15 63 25 156 4 30 9 58 11 62
3 5 8 25 10 46 3 20 10 55 15 77 6 22 13 51 15 65 3 14 7 32 11 40 3 8 7 22 9
30 2 8 10 20 18 26 9 6 13 14 9 17 -3 4 1 7 9 7 9 0 21 -6 27 -14 15 -18 29
-8 162 124 52 52 160 158 240 236 155 151 232 232 292 306 21 26 69 81 107
121 94 100 160 182 255 316 44 62 110 152 147 201 124 162 239 333 302 444 84
150 88 156 108 156 17 0 47 40 31 40 -4 0 -1 6 7 13 8 7 16 19 18 27 4 16 9
27 64 150 18 41 32 80 30 87 -2 7 2 13 8 13 6 0 9 4 5 9 -3 5 1 25 9 43 8 18
20 52 27 76 14 47 23 50 59 22 38 -30 44 -24 9 9 -18 18 -26 32 -20 36 6 3 16
3 23 -1 7 -4 8 -3 4 4 -4 7 -1 12 9 12 9 0 63 48 121 106 58 58 108 103 111
100 3 -3 -1 -12 -8 -19 -8 -8 -23 -27 -34 -43 -28 -39 -78 -98 -87 -102 -5 -2
-8 -8 -8 -13 0 -6 8 -5 20 1 11 6 18 15 15 20 -3 6 0 7 7 5 8 -3 23 2 34 12
11 10 26 19 34 21 8 2 22 10 31 18 8 8 21 14 27 14 7 0 12 5 12 11 0 5 5 7 10
4 6 -3 10 -1 10 4 0 6 9 11 20 11 11 0 20 4 20 9 0 5 8 12 18 15 9 4 32 20 51
36 18 17 38 30 44 30 6 0 8 3 5 6 -6 5 27 44 37 44 10 0 43 39 37 44 -3 3 0 6
6 6 7 0 12 7 12 16 0 8 4 13 8 10 4 -2 20 15 36 40 15 24 32 44 38 44 5 0 6 5
3 10 -3 6 -1 10 5 10 6 0 8 5 5 10 -3 6 1 13 9 16 9 3 13 10 10 15 -3 5 -1 9
4 9 5 0 17 18 27 40 10 23 22 37 29 33 6 -3 8 -3 4 2 -4 4 2 25 13 46 11 22
16 39 12 39 -5 0 -2 4 5 9 7 4 14 15 16 23 1 9 8 24 16 34 13 15 13 17 1 9 -8
-5 -4 7 9 25 13 18 17 30 9 25 -11 -7 -12 -6 -2 6 6 8 14 26 17 39 3 14 8 36
12 50 3 14 6 37 6 52 0 16 3 28 7 28 4 0 7 15 7 33 0 17 4 55 8 82 6 45 12
121 20 257 1 26 -1 53 -5 60 -4 7 -3 18 3 25 6 7 6 13 1 13 -5 0 -9 15 -10 33
-1 17 -3 43 -6 57 -21 119 -27 200 -14 200 5 0 8 28 7 63 -2 93 -2 95 23 100
21 4 21 4 1 6 -19 1 -57 31 -40 31 11 0 -36 80 -48 80 -11 1 11 17 29 20 6 1
20 6 33 11 13 5 21 5 18 1 -2 -4 4 -13 15 -20 10 -7 19 -8 19 -3 0 5 -6 11
-13 14 -23 8 2 19 30 13 18 -4 36 -19 47 -37 10 -17 20 -28 23 -26 6 7 -18 48
-42 71 -20 19 -20 19 3 13 12 -3 20 -1 16 4 -3 5 -11 9 -17 9 -7 0 -24 11 -38
23 -35 33 -139 55 -204 44 -94 -17 -115 -11 -117 34 -2 48 2 59 22 59 11 0 20
3 20 8 0 4 19 7 43 7 23 0 54 3 70 7 15 3 27 3 27 0 0 -4 25 -8 56 -9 57 -1
67 7 17 13 -15 2 -51 8 -80 12 -35 6 -56 5 -64 -2 -9 -8 -10 -8 -6 0 7 12 -16
11 -72 -1 -29 -6 -30 -5 -25 22 5 24 10 75 13 121 1 6 9 12 19 12 10 0 18 8
19 18 2 19 46 126 104 249 60 129 95 237 119 373 25 133 23 167 -11 199 -28
26 -71 15 -147 -37 l-60 -41 24 87 c33 118 35 180 8 206 -38 39 -117 3 -192
-88 -62 -74 -118 -136 -125 -136 -10 0 15 77 112 350 50 139 36 214 -42 227
-39 6 -77 -11 -154 -68 l-52 -39 28 58 c47 94 127 332 146 433 2 12 7 29 10
39 32 100 41 342 16 416 -9 26 -28 56 -42 67 -25 18 -28 18 -63 2 -41 -20
-101 -105 -158 -225 -41 -86 -92 -175 -84 -145 3 11 15 52 26 90 12 39 23 77
25 85 11 47 46 230 50 259 2 18 7 52 11 75 22 151 24 269 4 305 -15 29 -56 37
-79 17 -9 -9 -39 -48 -66 -88 -27 -40 -52 -75 -55 -78 -4 -3 -10 -14 -13 -24
-15 -39 -15 -8 -1 59 35 160 4 278 -67 263 -8 -2 -32 -22 -55 -45 l-41 -43 -1
41 c-5 124 -43 176 -119 163 -56 -10 -99 -51 -190 -182 l-66 -94 -38 86 c-33
72 -103 266 -114 316 -35 154 -103 312 -147 344 -55 39 -137 24 -171 -33 -18
-30 -62 -81 -69 -81 -3 0 -5 15 -5 33 1 97 -37 164 -108 187 -44 15 -69 9
-125 -29 l-43 -29 -16 31 c-9 18 -29 38 -45 46 -25 12 -36 11 -81 -3 -70 -22
-193 -105 -268 -181 -20 -20 -184 -235 -270 -354 -75 -102 -81 -111 -87 -111
-3 0 -12 16 -18 35 -13 35 -16 44 -32 129 -19 97 -30 122 -54 135 -31 17 -59
7 -96 -32 -46 -49 -84 -173 -104 -337 -2 -19 -7 -60 -11 -90 -3 -30 -9 -68
-12 -85 -6 -33 -8 -65 -11 -140 l-2 -50 -24 42 c-26 46 -86 135 -96 143 -3 3
-44 52 -90 110 -95 119 -114 138 -146 146 -29 7 -40 0 -60 -37 -41 -81 -1
-330 100 -611 40 -110 63 -215 72 -319 l7 -70 -34 20 c-40 23 -79 14 -79 -18
0 -11 18 -58 40 -103 39 -79 63 -147 75 -213 3 -16 9 -46 13 -65 13 -63 2
-623 -12 -637 -3 -3 -17 7 -32 21 -67 62 -127 48 -123 -28 1 -22 6 -51 11 -64
17 -48 39 -251 33 -297 -2 -11 -6 -54 -10 -95 -3 -41 -8 -90 -12 -107 -5 -31
-6 -32 -26 -18 -29 20 -61 19 -79 -2 -26 -31 -31 -52 -43 -192 -6 -69 -14
-133 -21 -168 -3 -15 -14 -23 -36 -28 -41 -8 -158 -65 -158 -76 0 -5 -7 -9
-15 -9 -7 0 -18 -6 -22 -13 -4 -7 -21 -21 -36 -31 -34 -21 -86 -77 -87 -91 0
-6 -11 -19 -25 -29 -13 -10 -22 -22 -19 -27 3 -5 1 -9 -3 -9 -5 0 -33 -32 -62
-70 -30 -38 -57 -70 -62 -70 -5 0 -5 -7 -2 -17 4 -10 2 -14 -4 -10 -6 4 -18
-4 -27 -18 -9 -14 -13 -25 -9 -25 5 0 0 -5 -9 -11 -10 -5 -18 -17 -18 -24 0
-8 -5 -15 -11 -15 -6 0 -9 -6 -6 -14 3 -8 -1 -17 -9 -20 -8 -3 -13 -11 -12
-17 2 -6 -2 -13 -9 -16 -8 -3 -10 3 -7 19 3 13 7 34 10 47 3 13 9 32 14 41 5
10 6 20 3 24 -3 3 -2 6 4 6 5 0 10 6 10 14 0 22 25 76 35 76 5 0 7 4 4 9 -3 4
5 21 19 37 13 15 22 30 20 32 -2 2 26 34 63 70 61 60 62 63 17 27 -52 -41
-165 -150 -165 -159 0 -3 -14 -25 -30 -49 -16 -25 -30 -50 -30 -56 0 -6 -5
-11 -11 -11 -5 0 -8 -4 -4 -9 3 -5 1 -12 -4 -15 -4 -3 -12 -20 -16 -38 -4 -18
-9 -37 -11 -43 -7 -20 -17 -81 -18 -102 0 -13 -4 -23 -10 -23 -6 0 -5 -5 2
-12 16 -16 3 -37 -76 -118 -83 -85 -136 -148 -140 -166 -2 -8 -8 -14 -13 -14
-5 0 -9 -7 -9 -15 0 -8 -5 -15 -10 -15 -6 0 -9 -3 -8 -7 2 -5 -16 -42 -40 -84
-23 -42 -42 -80 -42 -84 0 -5 -7 -16 -15 -25 -8 -9 -16 -29 -17 -43 -1 -15 -6
-27 -11 -27 -5 0 -7 -7 -3 -15 3 -8 2 -15 -2 -15 -4 0 -8 -8 -9 -17 -1 -26
-13 -94 -20 -118 -10 -32 -11 -159 -1 -171 5 -7 11 -21 13 -33 8 -40 113 -151
144 -151 5 0 11 -4 13 -8 2 -4 21 -18 43 -31 l40 -23 -52 51 c-29 28 -53 55
-53 60 0 5 -4 11 -8 13 -12 5 -53 96 -58 132 -8 44 -5 82 10 151 l13 60 -1
-85 c-1 -68 4 -97 23 -143 13 -32 26 -56 28 -53 8 8 50 -39 58 -64 4 -13 20
-44 35 -70 15 -26 31 -58 35 -71 3 -13 15 -43 26 -66 10 -24 19 -47 19 -53 0
-5 5 -10 10 -10 6 0 10 -6 10 -13 0 -7 10 -23 23 -34 45 -42 114 -119 142
-158 16 -22 50 -61 76 -87 25 -26 44 -50 41 -53 -3 -3 -1 -5 5 -5 6 0 1 -32
-14 -77 -13 -43 -26 -89 -28 -103 -2 -14 -11 -43 -21 -65 -9 -22 -16 -41 -15
-43 8 -14 -120 -189 -202 -277 -37 -39 -44 -51 -32 -58 24 -13 18 -27 -7 -18
-13 4 -67 16 -121 26 -98 18 -111 18 -252 -11 -5 -1 -50 -9 -100 -19 -49 -9
-94 -20 -100 -24 -5 -4 -20 -6 -32 -5 -13 0 -23 -3 -23 -7 0 -5 -9 -9 -20 -9
-11 0 -20 -5 -20 -12 0 -6 -3 -9 -6 -5 -8 7 -117 -33 -126 -48 -4 -5 -8 -6 -8
-1 0 4 -12 1 -26 -9 -14 -9 -28 -14 -31 -11 -5 5 -17 -3 -53 -36 -10 -9 -21
-14 -23 -11 -3 2 -13 -9 -23 -26 -10 -17 -21 -31 -25 -31 -4 0 -14 -18 -23
-40 -16 -40 -21 -80 -11 -80 8 0 54 53 55 62 1 21 110 106 110 86 0 -10 2 -10
9 0 4 7 21 20 37 28 25 12 23 9 -11 -20 -22 -20 -46 -35 -52 -36 -7 0 -13 -3
-13 -7 0 -5 -13 -17 -29 -28 -16 -10 -27 -23 -25 -27 3 -4 0 -8 -5 -8 -12 0
-51 -36 -46 -42 2 -2 -9 -12 -24 -22 -15 -10 -34 -29 -42 -41 -8 -13 -26 -40
-42 -62 -19 -28 -29 -56 -32 -98 -3 -32 -8 -61 -10 -63 -3 -3 -1 -10 4 -16 5
-6 11 -27 13 -46 l3 -35 -45 3 c-25 2 -85 15 -134 29 -75 21 -102 25 -165 20
-42 -3 -85 -9 -97 -12 -19 -6 -22 -1 -28 52 -8 70 -10 81 -32 208 -9 55 -18
111 -20 125 -1 14 -3 26 -4 28 -2 1 -3 5 -4 10 -6 24 -19 89 -22 102 -1 8 -16
85 -33 170 -17 85 -32 167 -35 182 -2 15 -14 67 -25 115 -21 90 -68 336 -96
500 -8 51 -42 210 -75 355 -33 144 -60 266 -60 271 0 4 -4 6 -8 3 -4 -2 -16
26 -26 62 -52 186 -220 632 -287 762 -42 81 -193 279 -248 326 -19 15 -55 42
-82 59 -26 16 -85 55 -131 86 l-83 55 -3 62 c-2 33 -7 75 -12 91 -10 37 1 41
20 6 7 -14 17 -25 21 -25 5 0 20 -12 34 -26 54 -54 152 -103 239 -120 77 -15
365 -20 531 -9 149 9 250 47 313 119 56 64 50 124 -15 140 -40 11 -163 69
-163 79 0 4 17 5 38 1 126 -23 456 2 660 51 62 15 323 112 418 156 119 55 229
144 295 240 45 67 53 101 34 140 -15 29 -26 34 -85 43 -19 3 -45 8 -58 10 -13
3 -51 8 -85 11 -59 5 -177 20 -261 31 -52 7 -201 51 -255 75 -55 24 -139 79
-165 108 l-19 21 39 1 c21 1 68 3 104 4 69 2 208 14 249 22 53 9 186 40 186
43 0 1 7 3 15 5 89 23 294 92 342 115 127 62 223 159 238 242 7 35 5 44 -16
64 -13 14 -29 21 -38 18 -28 -11 -218 17 -293 42 -143 47 -381 188 -448 265
-11 12 -15 20 -9 16 44 -25 384 -26 519 -2 80 15 164 39 207 60 25 13 49 21
52 18 3 -4 6 -1 6 5 0 6 9 13 19 17 23 7 131 113 131 128 0 6 6 18 14 26 21
23 40 103 33 133 -8 32 -8 31 -162 63 -211 44 -313 95 -474 240 -31 28 -59 55
-63 61 -4 6 -27 33 -50 59 -74 83 -74 81 -10 80 71 -2 180 18 224 41 53 27
178 114 243 168 159 135 200 194 263 379 41 118 42 142 12 152 -16 5 -125 -6
-196 -19 -18 -4 -127 -16 -189 -22 -16 -1 -77 7 -135 19 -114 24 -285 99 -285
126 0 9 25 24 65 38 79 28 230 102 230 114 0 4 9 10 20 14 52 17 280 278 315
361 42 102 7 152 -76 108 -46 -23 -179 -43 -282 -42 -110 1 -217 16 -218 32
-1 11 -3 57 -13 391 -6 166 -12 259 -21 300 -6 23 -28 141 -51 267 l-16 87 42
60 c22 34 44 61 49 61 13 0 74 88 121 175 25 45 61 107 81 136 167 246 285
475 324 629 2 8 11 40 20 70 62 210 67 241 73 445 7 186 6 545 -1 607 -1 15
-6 30 -10 34 -4 4 -7 18 -7 31 0 44 -27 80 -70 91 -47 13 -237 12 -338 -2 -62
-9 -143 -16 -180 -16 -67 0 -130 -8 -272 -34 l-75 -13 -12 26 c-7 14 -28 64
-48 111 -96 223 -138 310 -161 331 -13 12 -24 30 -24 40 0 9 -30 43 -67 75
-38 32 -84 74 -103 92 -62 60 -103 82 -186 97 -43 8 -113 24 -154 34 -75 19
-168 36 -182 33 -5 -1 -8 7 -8 18 0 11 4 20 9 20 5 0 17 7 26 17 11 11 19 13
23 5 4 -5 26 -13 49 -17 34 -5 46 -2 63 15 11 11 20 17 20 13 0 -5 13 11 28
35 16 23 32 39 35 35 4 -3 7 -1 7 5 0 6 16 27 35 47 20 19 36 38 38 42 1 5 5
7 9 6 5 -2 8 2 8 8 0 6 16 31 36 55 20 24 32 44 28 44 -5 0 -4 4 2 8 14 8 64
104 69 129 2 10 4 18 5 18 7 0 4 125 -3 145 -19 52 -32 76 -51 93 -10 9 -15
17 -10 17 5 0 -9 12 -31 27 -22 14 -43 31 -46 36 -3 5 -8 8 -10 7 -9 -4 -59
13 -59 20 0 12 -281 1 -296 -11 -8 -6 -20 -9 -28 -6 -8 3 -17 -1 -20 -9 -3 -8
-9 -13 -13 -12 -9 3 -69 -41 -65 -48 6 -11 1 -24 -8 -19 -5 3 -10 -3 -10 -14
0 -11 -7 -27 -16 -35 -8 -9 -13 -16 -10 -16 9 0 -44 -81 -71 -109 -13 -13 -23
-30 -23 -37 0 -8 -5 -14 -12 -14 -6 0 -8 -3 -5 -7 4 -3 -2 -13 -13 -20 -11 -8
-18 -18 -15 -23 3 -4 -2 -11 -11 -14 -8 -3 -12 -10 -9 -16 3 -5 -1 -10 -9 -10
-9 0 -15 -3 -15 -7 1 -5 0 -12 -1 -18 -7 -29 -3 -41 20 -64 16 -16 20 -26 12
-29 -7 -2 -12 -8 -12 -14 0 -6 -11 -24 -25 -42 -34 -42 -37 -46 -65 -86 -37
-53 -42 -56 -80 -54 -19 1 -35 3 -35 4 0 1 -11 3 -25 5 -14 1 -52 6 -85 10
-33 4 -87 8 -120 10 -33 2 -60 4 -60 5 0 1 -33 3 -73 4 -40 2 -75 6 -79 9 -3
4 -12 2 -20 -4 -8 -7 -13 -7 -13 -2 0 13 -43 11 -52 -2 -5 -6 -8 -6 -8 2 0 6
-8 11 -17 11 -10 0 -70 3 -133 7 -63 4 -149 9 -190 11 -41 1 -75 3 -75 4 0 1
-34 3 -75 3 -41 1 -80 5 -87 10 -6 4 -14 3 -17 -1 -6 -10 -36 -9 -53 1 -6 4
-14 3 -18 -3 -4 -6 -12 -7 -18 -3 -19 12 -37 12 -37 2 0 -6 -6 -7 -12 -2 -15
9 -214 15 -443 12 -33 0 -62 0 -65 1 -22 8 -310 3 -310 -5 0 -5 -5 -3 -10 5
-5 8 -10 11 -10 5 0 -6 -38 -10 -95 -9 -60 0 -95 -4 -95 -10 0 -6 -4 -5 -9 3
-6 9 -10 10 -16 2 -5 -9 -10 -9 -21 0 -11 9 -17 9 -29 -1 -11 -9 -15 -9 -15
-1 0 8 -5 9 -17 2 -10 -5 -26 -5 -40 0 -12 4 -25 4 -28 0 -2 -5 -32 -8 -65 -7
-36 1 -60 -3 -60 -9 0 -6 -3 -7 -8 0 -6 8 -34 11 -52 6 -3 -1 -44 -3 -92 -4
-48 -2 -90 -6 -94 -9 -3 -4 -16 -3 -29 2 -14 5 -26 5 -34 -3 -8 -8 -11 -8 -11
2 0 7 -5 9 -12 5 -7 -4 -65 -9 -131 -10 -65 -1 -121 -5 -124 -8 -4 -3 -12 -1
-20 5 -7 6 -13 7 -13 2 0 -5 -9 -9 -20 -9 -11 0 -20 5 -20 10 0 5 -7 1 -16
-10 -8 -10 -13 -14 -10 -7 8 14 -33 14 -51 0 -9 -6 -13 -6 -13 1 0 11 -25 10
-36 -1 -4 -3 -15 -2 -25 4 -11 5 -19 6 -19 2 0 -5 -19 -8 -42 -7 -24 1 -49 -4
-57 -10 -11 -8 -13 -8 -8 1 6 9 -4 11 -35 7 -23 -3 -97 -7 -163 -9 -66 -2
-130 -6 -142 -9 -13 -2 -23 0 -23 5 0 6 -7 6 -17 1 -10 -5 -55 -8 -100 -8 -46
1 -83 -1 -83 -4 0 -3 -30 -5 -68 -4 -37 0 -73 -5 -81 -10 -12 -9 -13 -8 -6 3
6 10 4 12 -4 7 -35 -22 -91 -8 -91 22 0 6 -7 13 -16 16 -8 3 -12 10 -9 16 3 5
1 10 -5 10 -10 0 -41 32 -95 98 -11 13 -31 37 -45 52 -14 16 -31 37 -39 49 -8
11 -18 18 -23 15 -4 -3 -5 2 -2 10 3 9 1 16 -6 16 -6 0 -8 5 -4 11 28 46 1
128 -66 198 -17 17 -30 35 -30 41 0 5 -4 10 -10 10 -5 0 -10 6 -10 13 0 7 -9
23 -20 35 -11 12 -20 24 -20 27 0 3 -8 13 -17 23 -10 10 -38 42 -62 70 -24 28
-49 49 -54 45 -6 -3 -7 -1 -4 4 4 6 0 16 -8 23 -8 7 -15 10 -15 6 0 -3 -14 7
-31 24 -17 16 -35 27 -40 24 -5 -3 -9 -1 -9 4 0 10 -80 11 -101 1z m8566
-9319 c-1 -8 -6 -39 -10 -68 -6 -45 -10 -53 -33 -59 -15 -3 -58 -19 -97 -35
-38 -16 -87 -31 -107 -32 l-37 -3 22 27 c12 15 42 42 67 61 25 19 54 42 64 52
11 9 24 17 28 17 13 0 79 46 73 51 -2 3 4 5 14 5 12 0 18 -6 16 -16z m-88 -15
c0 -8 -4 -12 -9 -9 -5 3 -6 10 -3 15 9 13 12 11 12 -6z m81 -178 c13 4 12 2
-3 -10 -13 -10 -24 -12 -32 -6 -8 7 -24 7 -49 0 -23 -6 -43 -7 -53 -1 -9 5
-11 10 -5 10 6 0 29 8 50 17 22 9 42 17 46 17 3 1 10 5 15 9 4 5 9 -3 11 -16
2 -19 8 -24 20 -20z m3892 -41 c47 -13 60 -19 60 -28 0 -5 -4 -6 -10 -3 -5 3
-48 7 -95 7 -47 1 -88 5 -91 10 -3 4 -15 8 -27 9 -21 0 -21 1 -2 8 19 8 135 6
165 -3z m-3880 -27 c0 -14 -30 -38 -48 -39 -10 0 -79 -29 -114 -47 -5 -2 -8
-2 -8 0 0 6 100 67 111 67 5 0 9 4 9 9 0 8 16 16 43 20 4 0 7 -4 7 -10z m-248
-81 c-103 -103 -222 -214 -222 -205 0 4 9 16 20 27 11 11 17 20 13 20 -5 1 3
10 16 20 13 11 20 20 17 20 -7 0 4 15 47 61 15 16 27 34 27 39 0 5 9 12 20 15
11 4 18 10 15 14 -2 5 7 13 20 19 14 7 25 16 25 22 0 6 4 9 9 5 5 -3 12 -2 15
3 2 4 13 8 24 8 16 0 5 -16 -46 -68z m3950 28 c17 -23 17 -25 0 -37 -9 -7 -14
-9 -10 -5 4 5 4 14 -1 20 -12 17 -21 46 -13 46 4 0 15 -11 24 -24z m116 -59
c14 -26 20 -51 16 -59 -4 -7 -8 -25 -9 -40 -1 -26 -15 -54 -15 -30 0 6 -5 23
-12 39 -6 15 -12 37 -13 48 -2 11 -7 32 -14 48 -7 18 -7 27 0 27 6 0 7 5 3 11
-4 7 -1 10 7 7 8 -2 25 -25 37 -51z m-74 -42 l7 -30 -19 24 c-11 13 -17 33
-14 44 6 23 16 9 26 -38z m-208 -13 c-3 -5 3 -18 13 -29 18 -19 18 -20 0 -42
-18 -21 -18 -21 -28 -2 -8 13 -8 22 -1 26 6 4 8 11 4 16 -6 11 2 39 11 39 4 0
4 -4 1 -8z m-7031 -32 c21 -16 31 -30 23 -30 -8 0 -27 14 -43 30 -16 17 -26
30 -23 30 3 0 22 -13 43 -30z m3332 -75 c0 -8 -3 -12 -6 -10 -4 2 -17 -12 -30
-31 -13 -19 -28 -34 -33 -34 -5 0 -7 -4 -4 -8 2 -4 -11 -25 -31 -47 -30 -34
-34 -36 -28 -15 4 14 14 31 23 38 9 6 13 12 9 12 -4 0 1 8 11 18 9 10 32 35
50 55 37 42 39 43 39 22z m-477 -55 c0 -5 -2 -10 -4 -10 -3 0 -8 5 -11 10 -3
6 -1 10 4 10 6 0 11 -4 11 -10z m4241 -42 c5 -54 -3 -115 -21 -163 -5 -14 -7
-25 -5 -25 3 0 -2 -11 -11 -25 -8 -13 -13 -30 -9 -37 4 -7 -1 -4 -10 7 -9 11
-14 30 -12 43 2 12 1 22 -2 22 -4 0 -6 28 -4 61 2 48 7 65 24 80 12 11 19 19
15 19 -9 0 17 29 27 30 4 0 8 -6 8 -12z m151 -18 c2 -14 6 -29 9 -35 9 -15 3
-95 -7 -105 -5 -5 -9 28 -10 81 -1 89 2 106 8 59z m-313 -242 c-7 -21 -15 -38
-19 -38 -11 0 -2 82 12 109 l13 25 3 -29 c2 -16 -2 -46 -9 -67z m335 40 c-1
-18 -3 -33 -4 -33 -1 0 -3 -10 -4 -23 -2 -12 -7 -27 -12 -32 -10 -10 -9 91 1
118 9 24 22 4 19 -30z m-4531 -30 c-4 -7 -8 -16 -8 -20 0 -4 -8 -17 -17 -28
-10 -11 -18 -24 -18 -29 0 -5 -13 -16 -30 -25 -16 -8 -30 -12 -30 -10 0 3 16
26 35 51 19 25 35 42 35 37 0 -5 7 2 16 14 16 23 31 31 17 10z m-108 -197 c3
-5 2 -12 -3 -15 -5 -3 -9 1 -9 9 0 17 3 19 12 6z m-7815 -391 c0 -5 -2 -10 -4
-10 -3 0 -8 5 -11 10 -3 6 -1 10 4 10 6 0 11 -4 11 -10z m11991 -153 c-10 -9
-11 -8 -5 6 3 10 9 15 12 12 3 -3 0 -11 -7 -18z m-3887 -148 c-3 -5 4 -17 16
-29 24 -24 26 -42 5 -34 -8 4 -15 10 -15 16 0 5 -7 16 -15 24 -19 19 -19 31 0
31 8 0 12 -4 9 -8z m50 -105 c9 -24 2 -26 -12 -4 -7 11 -8 20 -3 20 5 0 12 -7
15 -16z m-264 -106 c0 -10 5 -18 10 -18 6 0 10 -4 10 -10 0 -5 -4 -10 -8 -10
-8 0 -52 84 -52 98 1 15 40 -44 40 -60z m366 20 c8 -16 13 -32 10 -36 -3 -3
-11 9 -17 26 -6 18 -15 32 -20 32 -5 0 -9 5 -9 11 0 17 19 0 36 -33z m3644 -7
c7 -2 -101 -55 -117 -57 -11 -2 -30 34 -21 40 27 18 102 27 138 17z m-3910
-38 c16 -9 34 -27 41 -39 6 -13 17 -21 22 -17 6 3 7 1 3 -5 -4 -6 2 -19 14
-29 11 -10 20 -23 20 -31 0 -7 4 -10 10 -7 5 3 15 -5 21 -19 7 -14 16 -23 20
-20 5 3 9 -2 9 -10 0 -9 7 -16 16 -16 8 0 13 -3 11 -7 -6 -10 19 -34 27 -26 9
9 -1 -34 -14 -57 -12 -22 -12 -22 -46 11 -19 19 -32 40 -29 47 3 10 0 12 -10
8 -8 -3 -14 -2 -12 2 2 7 -7 19 -43 61 -8 9 -21 29 -29 44 -8 15 -22 35 -32
46 -10 10 -16 21 -13 24 2 2 -2 10 -11 17 -15 12 -21 40 -9 40 3 0 19 -8 34
-17z m3770 -22 c0 -5 -7 -12 -16 -15 -14 -5 -15 -4 -4 9 14 17 20 19 20 6z
m-3833 -16 c0 -8 -4 -12 -9 -9 -4 3 -8 9 -8 15 0 5 4 9 8 9 5 0 9 -7 9 -15z
m3943 1 c0 -6 -99 -76 -107 -76 -4 0 -17 -10 -30 -22 -29 -27 -39 -18 -21 18
10 21 26 31 66 42 28 8 52 19 52 24 0 5 4 7 9 3 5 -3 12 -1 16 5 6 10 15 14
15 6z m-160 -216 c-24 -22 -48 -40 -52 -40 -14 0 -9 20 7 26 8 4 13 10 10 14
-5 7 26 23 47 25 3 0 10 3 14 8 4 4 10 7 13 7 3 0 -14 -18 -39 -40z m-10597
-476 c16 -19 27 -34 24 -34 -7 0 -67 57 -67 64 0 14 17 2 43 -30z m221 -234
c19 -31 -38 21 -99 90 -16 19 -3 10 30 -20 33 -30 64 -61 69 -70z m6356 -145
c0 6 14 11 30 11 34 2 44 -25 10 -27 -11 -1 -23 -2 -27 -3 -14 -4 -87 -16
-118 -21 -16 -2 -47 -9 -67 -14 -21 -5 -38 -6 -38 -2 0 13 97 54 109 47 6 -4
11 -3 11 2 0 5 11 8 24 7 13 -2 29 1 37 6 8 5 16 3 21 -4 4 -7 8 -7 8 -2z
m-270 -49 c0 -8 -77 -56 -91 -56 -7 0 -2 7 13 14 15 8 38 22 50 30 23 17 28
19 28 12z m-459 -199 c-10 -9 -11 -8 -5 6 3 10 9 15 12 12 3 -3 0 -11 -7 -18z
m-12 -34 c-8 -10 -16 -20 -19 -23 -3 -3 -11 -17 -19 -32 -8 -16 -21 -28 -28
-28 -12 0 -11 3 1 16 9 8 16 21 16 28 0 6 9 18 19 26 11 7 18 17 15 22 -3 4 2
8 12 8 14 0 15 -2 3 -17z m-67 -15 c-5 -7 -16 -33 -23 -58 -7 -25 -24 -64 -36
-87 -12 -24 -23 -58 -23 -75 -1 -66 -5 -78 -23 -84 -26 -8 -27 -5 -28 64 -1
74 16 130 47 158 13 12 24 24 24 27 0 10 54 66 64 66 5 1 4 -5 -2 -11z m-17
-190 c-3 -13 -7 -36 -9 -53 -2 -16 -4 -34 -5 -38 0 -5 -5 -6 -11 -2 -6 4 -6
15 0 30 5 14 8 25 5 25 -2 0 1 14 6 30 13 35 22 40 14 8z m-6183 -95 c14 -16
13 -24 -8 -83 l-23 -65 2 83 c0 45 4 82 7 82 4 0 14 -8 22 -17z m3868 -713 c0
-5 -5 -10 -11 -10 -5 0 -7 5 -4 10 3 6 8 10 11 10 2 0 4 -4 4 -10z m5135 -467
c-4 -16 -8 -33 -8 -40 0 -7 -3 -10 -7 -8 -8 5 -6 33 5 58 11 27 18 20 10 -10z
m-63 -100 c-2 -67 -13 -110 -38 -146 -20 -31 -8 149 13 184 10 16 20 29 23 29
3 0 4 -30 2 -67z m-56 -28 c-1 -19 -5 -35 -10 -35 -5 0 -3 -7 4 -15 10 -12 10
-15 0 -15 -8 0 -11 -13 -8 -39 2 -22 0 -37 -4 -35 -5 3 -8 -7 -8 -22 0 -15
-11 -42 -25 -59 -13 -18 -22 -35 -19 -38 3 -3 -4 -11 -16 -17 -20 -10 -21 -10
-16 8 4 11 9 46 11 79 2 32 5 58 5 58 1 0 3 10 6 23 2 13 13 33 24 45 11 11
28 38 37 59 9 21 17 38 18 38 1 0 1 -16 1 -35z m-166 -140 c-7 -8 -9 -15 -4
-15 5 -1 -2 -7 -16 -15 -14 -8 -21 -14 -17 -15 10 0 -85 -90 -95 -90 -10 0 16
33 82 102 30 31 56 55 59 53 2 -3 -2 -11 -9 -20z m24 -120 c-4 -8 -8 -15 -10
-15 -2 0 -4 7 -4 15 0 8 4 15 10 15 5 0 7 -7 4 -15z m-9 -42 c-2 -23 -41 -100
-56 -108 -7 -5 -7 -2 0 11 6 11 20 40 31 67 20 50 28 58 25 30z m-158 -39
c-26 -26 -50 -44 -53 -41 -3 3 9 19 28 36 18 17 38 35 43 40 6 6 15 10 20 10
6 1 -12 -20 -38 -45z m72 -6 c-12 -23 -40 -60 -63 -80 -23 -21 -50 -46 -61
-56 -39 -37 -49 -35 -15 2 19 20 34 42 33 47 -2 5 4 9 12 9 8 0 15 4 15 8 0
14 36 52 49 52 6 0 11 5 11 11 0 12 33 59 38 54 2 -2 -7 -23 -19 -47z m163
-50 c-7 -7 -12 -8 -12 -2 0 14 12 26 19 19 2 -3 -1 -11 -7 -17z m-12 -25 c0
-16 -57 -92 -103 -139 -52 -52 -49 -33 3 26 17 19 38 47 48 63 9 15 20 27 24
27 4 0 8 7 8 15 0 8 5 15 10 15 6 0 10 -3 10 -7z m-370 -47 c0 -3 -4 -8 -10
-11 -5 -3 -10 -1 -10 4 0 6 5 11 10 11 6 0 10 -2 10 -4z m-36 -48 c-31 -37
-108 -108 -118 -108 -4 0 22 29 59 65 68 65 94 84 59 43z m66 -23 c-7 -8 -17
-15 -23 -15 -6 0 -2 7 9 15 25 19 30 19 14 0z m40 -19 c0 -2 -8 -10 -17 -17
-16 -13 -17 -12 -4 4 13 16 21 21 21 13z m-397 -61 c-3 -9 -8 -14 -10 -11 -3
3 -2 9 2 15 9 16 15 13 8 -4z m421 -37 c-47 -57 -89 -98 -101 -98 -7 0 -13 -4
-13 -9 0 -10 -27 -21 -44 -20 -5 0 -12 -4 -15 -9 -5 -8 -68 -39 -86 -42 -3 0
-20 -7 -40 -16 -71 -29 -32 2 54 44 49 24 101 54 117 67 16 13 51 42 79 64 54
45 79 54 49 19z m-319 -28 c-3 -5 -12 -10 -19 -10 -7 0 -25 -9 -40 -21 -14
-11 -26 -17 -26 -12 0 9 68 52 83 53 5 0 5 -4 2 -10z m-220 -10 c-3 -5 -12
-10 -18 -10 -7 0 -6 4 3 10 19 12 23 12 15 0z m125 -41 c0 -7 -34 -22 -102
-45 -22 -7 -38 -8 -38 -2 0 5 -6 6 -12 2 -7 -4 -9 -3 -5 1 4 5 13 10 20 11 7
2 26 7 44 12 17 6 33 8 36 6 2 -3 9 2 15 9 12 14 42 19 42 6z m-8752 -80 c-6
-16 -12 -28 -14 -26 -5 5 13 57 20 57 3 0 0 -14 -6 -31z m8172 18 c31 -2 35
-6 47 -47 18 -63 12 -75 -29 -54 -18 9 -37 23 -41 30 -4 8 -13 14 -18 14 -6 0
-7 -5 -4 -10 9 -14 -46 11 -69 32 -11 10 -26 18 -35 18 -29 0 -1 13 39 17 38
5 40 4 46 -27 5 -22 10 -28 17 -21 8 8 7 15 -1 23 -16 16 -15 39 1 33 6 -3 28
-6 47 -8z m100 -28 c0 -6 6 -16 13 -24 36 -38 45 -54 34 -59 -7 -2 -1 -5 13
-6 14 0 34 -7 44 -15 18 -14 14 -20 -9 -15 -5 1 -21 4 -34 7 -34 6 -43 12 -35
25 4 7 2 8 -4 4 -25 -16 -85 76 -67 104 8 12 45 -5 45 -21z m148 6 c28 -10 52
-22 52 -26 0 -4 -16 -10 -36 -14 -28 -5 -39 -2 -50 12 -7 10 -14 22 -14 27 0
5 -2 7 -5 5 -2 -3 -1 -19 4 -37 8 -25 7 -30 -5 -25 -8 3 -14 9 -14 14 0 5 -8
9 -18 9 -10 0 -29 10 -42 22 l-24 23 29 5 c45 8 65 5 123 -15z m136 -43 c3 -5
-1 -9 -9 -9 -8 0 -12 4 -9 9 3 4 7 8 9 8 2 0 6 -4 9 -8z m-129 -90 c-3 -3 -11
0 -18 7 -9 10 -8 11 6 5 10 -3 15 -9 12 -12z m506 -28 c-11 -15 -21 -24 -21
-20 0 4 -7 1 -15 -8 -8 -8 -15 -20 -15 -26 0 -6 -4 -9 -9 -5 -5 3 -16 -3 -23
-13 -12 -17 -107 -83 -155 -109 -20 -10 -21 -10 -12 14 5 13 14 34 20 46 9 19
7 18 -10 -3 -11 -14 -23 -37 -26 -52 -6 -26 -16 -33 -40 -28 -5 1 -18 4 -29 6
-81 16 -188 56 -218 82 -10 8 -18 13 -18 10 0 -3 -12 5 -27 18 -16 13 -46 40
-68 58 l-40 35 66 -19 c65 -18 139 -31 189 -34 14 0 28 -5 32 -11 5 -7 8 -7 8
0 0 6 28 9 67 8 38 0 72 2 78 5 5 3 21 7 35 8 14 1 36 5 50 8 14 4 40 9 59 12
19 2 57 15 85 28 28 13 53 22 55 20 2 -2 -6 -15 -18 -30z"/>
<path d="M11410 10890 c0 -5 5 -10 10 -10 6 0 10 5 10 10 0 6 -4 10 -10 10 -5
0 -10 -4 -10 -10z"/>
<path d="M1538 6353 c-25 -6 -34 -44 -14 -59 30 -21 30 -108 1 -220 -49 -187
-59 -262 -42 -339 9 -43 46 -125 57 -125 4 0 11 -10 17 -22 15 -33 141 -166
164 -173 22 -7 49 10 49 30 0 7 -29 43 -64 80 -79 82 -147 184 -155 233 -10
56 4 156 43 307 42 167 16 304 -56 288z"/>
<path d="M1912 6184 c-12 -22 -4 -54 14 -54 33 0 50 -100 33 -200 -5 -30 -12
-77 -15 -105 -3 -27 -7 -52 -7 -55 -5 -26 19 -124 39 -157 40 -69 117 -95 148
-51 18 26 5 48 -28 48 -12 0 -35 13 -50 29 -23 24 -28 38 -31 102 -3 41 1 110
8 154 21 128 6 246 -35 285 -26 24 -64 26 -76 4z"/>
<path d="M1191 5731 c-11 -7 -11 -16 3 -52 9 -27 17 -90 20 -164 5 -125 7
-141 28 -215 28 -105 130 -227 270 -322 77 -52 166 -140 211 -211 21 -32 62
-37 70 -8 2 10 -2 32 -10 48 -24 51 -141 170 -223 228 -153 108 -229 200 -260
314 -6 24 -13 84 -15 135 -7 147 -15 199 -34 226 -20 28 -39 34 -60 21z"/>
<path d="M15806 5305 c5 -13 4 -16 -4 -11 -7 4 -12 1 -12 -9 0 -10 5 -13 12
-9 7 5 8 3 4 -5 -5 -7 -14 -10 -22 -7 -11 4 -12 2 -1 -14 6 -11 14 -20 17 -21
3 0 13 -2 23 -4 9 -2 17 2 17 8 0 7 5 5 10 -3 8 -13 10 -12 10 3 0 9 5 17 11
17 5 0 7 -5 3 -12 -4 -7 -3 -8 4 -4 15 9 3 38 -12 29 -6 -3 -6 -1 2 8 17 19
15 30 -5 22 -13 -5 -15 -2 -10 12 6 15 5 16 -8 5 -12 -10 -18 -10 -30 0 -13
11 -14 10 -9 -5z"/>
<path d="M14035 4130 c-3 -6 1 -7 9 -4 18 7 21 14 7 14 -6 0 -13 -4 -16 -10z"/>
</g>
</svg>
