<svg width="208" height="57" viewBox="0 0 208 57" fill="none" xmlns="http://www.w3.org/2000/svg">
<path d="M107.217 55.04C106.757 55.04 106.34 54.9333 105.967 54.72C105.6 54.5067 105.307 54.2 105.087 53.8C104.874 53.4 104.767 52.93 104.767 52.39C104.767 51.8367 104.874 51.3633 105.087 50.97C105.307 50.5767 105.6 50.2733 105.967 50.06C106.34 49.8467 106.757 49.74 107.217 49.74C107.71 49.74 108.15 49.8533 108.537 50.08C108.93 50.3 109.237 50.61 109.457 51.01C109.684 51.4033 109.797 51.8633 109.797 52.39C109.797 52.91 109.684 53.37 109.457 53.77C109.237 54.17 108.93 54.4833 108.537 54.71C108.15 54.93 107.71 55.04 107.217 55.04ZM104.597 55V47.58H105.097V51.47L104.997 52.38L105.077 53.29V55H104.597ZM107.187 54.59C107.587 54.59 107.947 54.5 108.267 54.32C108.587 54.1333 108.837 53.8733 109.017 53.54C109.204 53.2067 109.297 52.8233 109.297 52.39C109.297 51.95 109.204 51.5667 109.017 51.24C108.837 50.9067 108.587 50.65 108.267 50.47C107.947 50.2833 107.587 50.19 107.187 50.19C106.787 50.19 106.427 50.2833 106.107 50.47C105.794 50.65 105.544 50.9067 105.357 51.24C105.177 51.5667 105.087 51.95 105.087 52.39C105.087 52.8233 105.177 53.2067 105.357 53.54C105.544 53.8733 105.794 54.1333 106.107 54.32C106.427 54.5 106.787 54.59 107.187 54.59ZM111.079 56.98C110.839 56.98 110.612 56.94 110.399 56.86C110.192 56.78 110.015 56.6633 109.869 56.51L110.119 56.13C110.252 56.27 110.395 56.3733 110.549 56.44C110.709 56.5067 110.889 56.54 111.089 56.54C111.329 56.54 111.539 56.4733 111.719 56.34C111.905 56.2067 112.079 55.9633 112.239 55.61L112.599 54.81L112.669 54.72L114.879 49.78H115.389L112.709 55.71C112.569 56.03 112.415 56.28 112.249 56.46C112.089 56.6467 111.912 56.78 111.719 56.86C111.525 56.94 111.312 56.98 111.079 56.98ZM112.589 55.13L110.169 49.78H110.699L112.899 54.69L112.589 55.13ZM121.95 55.05C121.084 55.05 120.4 54.7967 119.9 54.29C119.4 53.7833 119.15 53.03 119.15 52.03V48H119.66V52.01C119.66 52.8833 119.86 53.53 120.26 53.95C120.66 54.37 121.227 54.58 121.96 54.58C122.687 54.58 123.25 54.37 123.65 53.95C124.05 53.53 124.25 52.8833 124.25 52.01V48H124.76V52.03C124.76 53.03 124.51 53.7833 124.01 54.29C123.51 54.7967 122.824 55.05 121.95 55.05ZM125.823 55L129.043 48H129.553L132.773 55H132.223L129.183 48.32H129.403L126.373 55H125.823ZM127.003 53.03L127.173 52.6H131.363L131.533 53.03H127.003ZM135.643 55L132.523 48H133.083L136.063 54.69H135.753L138.743 48H139.273L136.153 55H135.643ZM139.743 52.54V52.09H142.313V52.54H139.743ZM144.152 55V48H146.662C147.248 48 147.752 48.0933 148.172 48.28C148.592 48.4667 148.915 48.7367 149.142 49.09C149.368 49.4367 149.482 49.86 149.482 50.36C149.482 50.8467 149.368 51.2667 149.142 51.62C148.915 51.9733 148.592 52.2433 148.172 52.43C147.752 52.6167 147.248 52.71 146.662 52.71H144.432L144.662 52.47V55H144.152ZM144.662 52.5L144.432 52.25H146.662C147.415 52.25 147.985 52.0867 148.372 51.76C148.765 51.4267 148.962 50.96 148.962 50.36C148.962 49.7533 148.765 49.2867 148.372 48.96C147.985 48.6267 147.415 48.46 146.662 48.46H144.432L144.662 48.21V52.5ZM154.284 55V53.81L154.264 53.63V51.67C154.264 51.1833 154.13 50.8133 153.864 50.56C153.604 50.3067 153.22 50.18 152.714 50.18C152.354 50.18 152.017 50.2433 151.704 50.37C151.397 50.49 151.134 50.6467 150.914 50.84L150.664 50.48C150.924 50.2467 151.237 50.0667 151.604 49.94C151.97 49.8067 152.354 49.74 152.754 49.74C153.4 49.74 153.897 49.9033 154.244 50.23C154.59 50.5567 154.764 51.0433 154.764 51.69V55H154.284ZM152.404 55.04C152.017 55.04 151.68 54.98 151.394 54.86C151.114 54.7333 150.897 54.5567 150.744 54.33C150.597 54.1033 150.524 53.8433 150.524 53.55C150.524 53.2833 150.584 53.0433 150.704 52.83C150.83 52.61 151.037 52.4333 151.324 52.3C151.61 52.16 151.994 52.09 152.474 52.09H154.394V52.48H152.484C151.944 52.48 151.564 52.58 151.344 52.78C151.13 52.98 151.024 53.23 151.024 53.53C151.024 53.8633 151.15 54.13 151.404 54.33C151.657 54.53 152.014 54.63 152.474 54.63C152.914 54.63 153.284 54.53 153.584 54.33C153.89 54.13 154.117 53.84 154.264 53.46L154.404 53.8C154.264 54.18 154.024 54.4833 153.684 54.71C153.35 54.93 152.924 55.04 152.404 55.04ZM156.824 55V49.78H157.324V55H156.824ZM157.074 48.51C156.96 48.51 156.864 48.47 156.784 48.39C156.704 48.31 156.664 48.2167 156.664 48.11C156.664 47.9967 156.704 47.9 156.784 47.82C156.864 47.74 156.96 47.7 157.074 47.7C157.194 47.7 157.29 47.74 157.364 47.82C157.444 47.8933 157.484 47.9867 157.484 48.1C157.484 48.2133 157.444 48.31 157.364 48.39C157.29 48.47 157.194 48.51 157.074 48.51ZM161.981 49.74C162.408 49.74 162.778 49.8233 163.091 49.99C163.411 50.15 163.658 50.3967 163.831 50.73C164.011 51.0567 164.101 51.4633 164.101 51.95V55H163.601V51.99C163.601 51.4033 163.451 50.9567 163.151 50.65C162.858 50.3433 162.444 50.19 161.911 50.19C161.504 50.19 161.151 50.2733 160.851 50.44C160.551 50.6067 160.321 50.84 160.161 51.14C160.008 51.44 159.931 51.8 159.931 52.22V55H159.431V49.78H159.911V51.23L159.841 51.07C160.001 50.6567 160.264 50.3333 160.631 50.1C160.998 49.86 161.448 49.74 161.981 49.74ZM166.54 53.56L166.55 52.93L170 49.78H170.64L168.35 51.93L168.05 52.18L166.54 53.56ZM166.16 55V47.58H166.66V55H166.16ZM170.24 55L167.96 52.14L168.3 51.77L170.86 55H170.24ZM172.039 55V49.78H172.539V55H172.039ZM172.289 48.51C172.175 48.51 172.079 48.47 171.999 48.39C171.919 48.31 171.879 48.2167 171.879 48.11C171.879 47.9967 171.919 47.9 171.999 47.82C172.079 47.74 172.175 47.7 172.289 47.7C172.409 47.7 172.505 47.74 172.579 47.82C172.659 47.8933 172.699 47.9867 172.699 48.1C172.699 48.2133 172.659 48.31 172.579 48.39C172.505 48.47 172.409 48.51 172.289 48.51ZM174.646 55V47.58H175.146V55H174.646ZM177.253 55V47.58H177.753V55H177.253ZM181.981 55.04C181.454 55.04 180.987 54.9267 180.581 54.7C180.181 54.4733 179.864 54.16 179.631 53.76C179.404 53.36 179.291 52.9033 179.291 52.39C179.291 51.87 179.397 51.4133 179.611 51.02C179.831 50.62 180.131 50.3067 180.511 50.08C180.891 49.8533 181.317 49.74 181.791 49.74C182.264 49.74 182.687 49.85 183.061 50.07C183.441 50.29 183.737 50.6 183.951 51C184.171 51.3933 184.281 51.85 184.281 52.37C184.281 52.39 184.277 52.4133 184.271 52.44C184.271 52.46 184.271 52.4833 184.271 52.51H179.661V52.12H184.001L183.801 52.31C183.807 51.9033 183.721 51.54 183.541 51.22C183.367 50.8933 183.131 50.64 182.831 50.46C182.531 50.2733 182.184 50.18 181.791 50.18C181.404 50.18 181.057 50.2733 180.751 50.46C180.451 50.64 180.214 50.8933 180.041 51.22C179.867 51.54 179.781 51.9067 179.781 52.32V52.41C179.781 52.8367 179.874 53.2167 180.061 53.55C180.254 53.8767 180.517 54.1333 180.851 54.32C181.184 54.5 181.564 54.59 181.991 54.59C182.324 54.59 182.634 54.53 182.921 54.41C183.214 54.29 183.461 54.1067 183.661 53.86L183.951 54.19C183.724 54.47 183.437 54.6833 183.091 54.83C182.751 54.97 182.381 55.04 181.981 55.04ZM185.828 55V49.78H186.308V51.21L186.258 51.05C186.404 50.63 186.651 50.3067 186.998 50.08C187.344 49.8533 187.778 49.74 188.298 49.74V50.23C188.278 50.23 188.258 50.23 188.238 50.23C188.218 50.2233 188.198 50.22 188.178 50.22C187.598 50.22 187.144 50.4033 186.818 50.77C186.491 51.13 186.328 51.6333 186.328 52.28V55H185.828ZM191.054 55.04C190.62 55.04 190.214 54.9767 189.834 54.85C189.46 54.7233 189.17 54.5633 188.964 54.37L189.194 53.97C189.394 54.1433 189.66 54.2933 189.994 54.42C190.327 54.54 190.687 54.6 191.074 54.6C191.62 54.6 192.014 54.51 192.254 54.33C192.494 54.15 192.614 53.9133 192.614 53.62C192.614 53.4067 192.55 53.24 192.424 53.12C192.304 52.9933 192.14 52.8967 191.934 52.83C191.727 52.7633 191.5 52.71 191.254 52.67C191.007 52.6233 190.76 52.5733 190.514 52.52C190.267 52.4667 190.04 52.39 189.834 52.29C189.627 52.19 189.46 52.0533 189.334 51.88C189.214 51.7 189.154 51.4633 189.154 51.17C189.154 50.9033 189.227 50.6633 189.374 50.45C189.52 50.2367 189.74 50.0667 190.034 49.94C190.327 49.8067 190.694 49.74 191.134 49.74C191.46 49.74 191.787 49.7867 192.114 49.88C192.447 49.9733 192.717 50.0967 192.924 50.25L192.694 50.65C192.474 50.4833 192.227 50.3633 191.954 50.29C191.68 50.2167 191.404 50.18 191.124 50.18C190.617 50.18 190.244 50.2733 190.004 50.46C189.77 50.6467 189.654 50.88 189.654 51.16C189.654 51.38 189.714 51.5567 189.834 51.69C189.96 51.8167 190.127 51.9167 190.334 51.99C190.54 52.0567 190.767 52.1133 191.014 52.16C191.26 52.2 191.507 52.2467 191.754 52.3C192 52.3533 192.227 52.43 192.434 52.53C192.64 52.6233 192.804 52.7567 192.924 52.93C193.05 53.0967 193.114 53.3233 193.114 53.61C193.114 53.8967 193.034 54.1467 192.874 54.36C192.72 54.5733 192.49 54.74 192.184 54.86C191.877 54.98 191.5 55.04 191.054 55.04ZM194.449 55.04C194.336 55.04 194.236 55 194.149 54.92C194.069 54.8333 194.029 54.73 194.029 54.61C194.029 54.49 194.069 54.39 194.149 54.31C194.236 54.23 194.336 54.19 194.449 54.19C194.563 54.19 194.659 54.23 194.739 54.31C194.826 54.39 194.869 54.49 194.869 54.61C194.869 54.73 194.826 54.8333 194.739 54.92C194.659 55 194.563 55.04 194.449 55.04ZM198.355 55.04C197.868 55.04 197.428 54.93 197.035 54.71C196.648 54.4833 196.342 54.17 196.115 53.77C195.888 53.37 195.775 52.91 195.775 52.39C195.775 51.8633 195.888 51.4033 196.115 51.01C196.342 50.61 196.648 50.3 197.035 50.08C197.428 49.8533 197.868 49.74 198.355 49.74C198.815 49.74 199.228 49.8467 199.595 50.06C199.968 50.2733 200.262 50.5767 200.475 50.97C200.695 51.3633 200.805 51.8367 200.805 52.39C200.805 52.93 200.698 53.4 200.485 53.8C200.272 54.2 199.978 54.5067 199.605 54.72C199.238 54.9333 198.822 55.04 198.355 55.04ZM198.385 54.59C198.785 54.59 199.142 54.5 199.455 54.32C199.775 54.1333 200.025 53.8733 200.205 53.54C200.392 53.2067 200.485 52.8233 200.485 52.39C200.485 51.95 200.392 51.5667 200.205 51.24C200.025 50.9067 199.775 50.65 199.455 50.47C199.142 50.2833 198.785 50.19 198.385 50.19C197.985 50.19 197.625 50.2833 197.305 50.47C196.992 50.65 196.742 50.9067 196.555 51.24C196.375 51.5667 196.285 51.95 196.285 52.39C196.285 52.8233 196.375 53.2067 196.555 53.54C196.742 53.8733 196.992 54.1333 197.305 54.32C197.625 54.5 197.985 54.59 198.385 54.59ZM200.495 55V53.29L200.585 52.38L200.485 51.47V47.58H200.985V55H200.495ZM205.213 55.04C204.687 55.04 204.22 54.9267 203.813 54.7C203.413 54.4733 203.097 54.16 202.863 53.76C202.637 53.36 202.523 52.9033 202.523 52.39C202.523 51.87 202.63 51.4133 202.843 51.02C203.063 50.62 203.363 50.3067 203.743 50.08C204.123 49.8533 204.55 49.74 205.023 49.74C205.497 49.74 205.92 49.85 206.293 50.07C206.673 50.29 206.97 50.6 207.183 51C207.403 51.3933 207.513 51.85 207.513 52.37C207.513 52.39 207.51 52.4133 207.503 52.44C207.503 52.46 207.503 52.4833 207.503 52.51H202.893V52.12H207.233L207.033 52.31C207.04 51.9033 206.953 51.54 206.773 51.22C206.6 50.8933 206.363 50.64 206.063 50.46C205.763 50.2733 205.417 50.18 205.023 50.18C204.637 50.18 204.29 50.2733 203.983 50.46C203.683 50.64 203.447 50.8933 203.273 51.22C203.1 51.54 203.013 51.9067 203.013 52.32V52.41C203.013 52.8367 203.107 53.2167 203.293 53.55C203.487 53.8767 203.75 54.1333 204.083 54.32C204.417 54.5 204.797 54.59 205.223 54.59C205.557 54.59 205.867 54.53 206.153 54.41C206.447 54.29 206.693 54.1067 206.893 53.86L207.183 54.19C206.957 54.47 206.67 54.6833 206.323 54.83C205.983 54.97 205.613 55.04 205.213 55.04Z" fill="url(#paint0_linear_58_457)"/>
<path d="M0 27V0.449998H1.35V27H0ZM2.7 27V0.449998H5.4V27H2.7ZM10.8 27V0.449998H12.15V27H10.8ZM5.94 34.65H4.275V33.705H5.94V33.075C5.94 32.085 6.195 31.35 6.705 30.87C7.215 30.39 7.905 30.15 8.775 30.15C9.255 30.15 9.705 30.225 10.125 30.375C10.545 30.555 10.89 30.825 11.16 31.185L10.53 32.085L10.395 32.22L10.305 32.13C10.305 32.1 10.305 32.055 10.305 31.995C10.275 31.935 10.245 31.86 10.215 31.77C10.155 31.68 10.08 31.605 9.99 31.545C9.84 31.395 9.675 31.275 9.495 31.185C9.315 31.125 9.075 31.095 8.775 31.095C8.265 31.095 7.86 31.26 7.56 31.59C7.26 31.89 7.11 32.385 7.11 33.075V33.705H9.63V34.65H7.11V41.355H5.94V34.65ZM14.8535 27V0.449998H16.2035V27H14.8535ZM17.5535 27V0.449998H18.9035V27H17.5535ZM21.6035 27V0.449998H27.0035V27H21.6035ZM19.0835 33.705H20.2985V35.235C20.4785 34.665 20.7785 34.245 21.1985 33.975C21.6185 33.675 22.0985 33.525 22.6385 33.525C23.2085 33.525 23.7485 33.675 24.2585 33.975C24.7385 34.275 25.1135 34.725 25.3835 35.325C25.6835 35.895 25.8335 36.615 25.8335 37.485C25.8335 38.325 25.6835 39.06 25.3835 39.69C25.0835 40.32 24.6935 40.785 24.2135 41.085C23.7035 41.385 23.1635 41.535 22.5935 41.535C22.1435 41.535 21.7235 41.43 21.3335 41.22C20.9135 41.01 20.5835 40.725 20.3435 40.365V44.145H19.0835V33.705ZM22.4135 40.5C23.0135 40.5 23.5235 40.26 23.9435 39.78C24.3635 39.33 24.5735 38.58 24.5735 37.53C24.5735 36.57 24.3935 35.835 24.0335 35.325C23.6735 34.815 23.1485 34.56 22.4585 34.56C21.8285 34.56 21.3185 34.83 20.9285 35.37C20.5085 35.91 20.2985 36.72 20.2985 37.8C20.3285 38.67 20.5235 39.33 20.8835 39.78C21.2735 40.26 21.7835 40.5 22.4135 40.5ZM29.707 27V0.449998H35.107V27H29.707ZM36.457 27V0.449998H37.807V27H36.457ZM40.507 27V0.449998H41.857V27H40.507ZM40.552 33.705C40.372 34.605 39.997 35.715 39.427 37.035L37.582 41.355H36.637L33.622 33.705H34.837L37.177 39.69L38.437 36.855C38.947 35.715 39.277 34.665 39.427 33.705H40.552ZM44.5605 27V0.449998H45.9105V27H44.5605ZM48.6105 27V0.449998H51.3105V27H48.6105ZM52.6605 27V0.449998H56.7105V27H52.6605ZM48.9705 35.55H55.0005V36.675H48.9705V35.55ZM59.4141 27V0.449998H60.7641V27H59.4141ZM66.1641 27V0.449998H67.5141V27H66.1641ZM70.2141 27V0.449998H72.9141V27H70.2141ZM66.5691 41.535C66.0291 41.535 65.5191 41.37 65.0391 41.04C64.5591 40.74 64.1691 40.29 63.8691 39.69C63.5691 39.06 63.4191 38.31 63.4191 37.44C63.4191 36.57 63.5691 35.835 63.8691 35.235C64.1991 34.665 64.6041 34.23 65.0841 33.93C65.5641 33.66 66.0741 33.525 66.6141 33.525C67.1541 33.525 67.6041 33.63 67.9641 33.84C68.3541 34.08 68.6541 34.41 68.8641 34.83V30.24H70.1241V30.33C70.0641 30.42 70.0191 30.495 69.9891 30.555C69.9891 30.645 69.9891 30.78 69.9891 30.96V40.185C69.9891 40.455 70.0041 40.665 70.0341 40.815C70.0341 40.995 70.0791 41.175 70.1691 41.355H68.9991C68.9091 41.175 68.8491 40.995 68.8191 40.815C68.8191 40.665 68.8191 40.455 68.8191 40.185C68.5791 40.605 68.2641 40.935 67.8741 41.175C67.4841 41.415 67.0491 41.535 66.5691 41.535ZM66.7491 40.455C67.4391 40.455 67.9491 40.185 68.2791 39.645C68.6091 39.105 68.7741 38.385 68.7741 37.485C68.7741 36.585 68.5941 35.865 68.2341 35.325C67.8741 34.785 67.3491 34.515 66.6591 34.515C65.9991 34.515 65.4891 34.755 65.1291 35.235C64.7691 35.745 64.5891 36.42 64.5891 37.26C64.5891 38.25 64.7691 39.03 65.1291 39.6C65.5191 40.17 66.0591 40.455 66.7491 40.455ZM74.2676 27V0.449998H75.6176V27H74.2676ZM78.3176 27V0.449998H79.6676V27H78.3176ZM82.3676 27V0.449998H87.7676V27H82.3676ZM83.1326 33.525C83.9426 33.525 84.6176 33.81 85.1576 34.38L84.6176 35.28L84.5726 35.46L84.4376 35.37C84.4076 35.25 84.3776 35.16 84.3476 35.1C84.2876 35.01 84.1826 34.92 84.0326 34.83C83.7626 34.65 83.4326 34.56 83.0426 34.56C82.6526 34.56 82.2776 34.665 81.9176 34.875C81.5576 35.055 81.2726 35.355 81.0626 35.775C80.8226 36.195 80.7026 36.705 80.7026 37.305V41.355H79.4876V33.705H80.7476L80.7026 35.1C80.9126 34.62 81.2426 34.23 81.6926 33.93C82.1426 33.66 82.6226 33.525 83.1326 33.525ZM89.1211 27V0.449998H90.4711V27H89.1211ZM94.5211 27V0.449998H99.9211V27H94.5211ZM101.271 27V0.449998H102.621V27H101.271ZM96.5461 41.49C95.8561 41.49 95.2411 41.325 94.7011 40.995C94.1911 40.665 93.7861 40.2 93.4861 39.6C93.1561 39 92.9911 38.31 92.9911 37.53C92.9911 36.75 93.1561 36.06 93.4861 35.46C93.7861 34.86 94.1911 34.395 94.7011 34.065C95.2411 33.705 95.8561 33.525 96.5461 33.525C97.2361 33.525 97.8361 33.705 98.3461 34.065C98.8861 34.395 99.3061 34.86 99.6061 35.46C99.9061 36.06 100.056 36.75 100.056 37.53C100.056 38.31 99.9061 39 99.6061 39.6C99.3061 40.2 98.8861 40.665 98.3461 40.995C97.8361 41.325 97.2361 41.49 96.5461 41.49ZM96.5461 40.5C96.9661 40.5 97.3561 40.365 97.7161 40.095C98.0461 39.855 98.3161 39.51 98.5261 39.06C98.7061 38.58 98.7961 38.055 98.7961 37.485C98.7961 36.615 98.5861 35.91 98.1661 35.37C97.7461 34.83 97.2061 34.56 96.5461 34.56C95.8861 34.56 95.3461 34.83 94.9261 35.37C94.5061 35.91 94.2961 36.615 94.2961 37.485C94.2961 38.055 94.3861 38.58 94.5661 39.06C94.7761 39.51 95.0461 39.855 95.3761 40.095C95.7061 40.365 96.0961 40.5 96.5461 40.5ZM103.975 27V0.449998H106.675V27H103.975ZM112.075 27V0.449998H113.425V27H112.075ZM114.775 27V0.449998H116.125V27H114.775ZM108.43 33.705H109.6V35.055C109.9 34.605 110.275 34.23 110.725 33.93C111.175 33.66 111.655 33.525 112.165 33.525C112.855 33.525 113.41 33.78 113.83 34.29C114.22 34.83 114.415 35.64 114.415 36.72V41.355H113.245V36.765C113.245 35.985 113.125 35.43 112.885 35.1C112.615 34.74 112.27 34.56 111.85 34.56C111.49 34.56 111.145 34.665 110.815 34.875C110.455 35.085 110.155 35.37 109.915 35.73C109.705 36.09 109.6 36.495 109.6 36.945V41.355H108.43V33.705ZM118.828 27V0.449998H120.178V27H118.828ZM121.528 27V0.449998H124.228V27H121.528ZM126.928 27V0.449998H128.278V27H126.928ZM126.613 41.535C125.473 41.535 124.573 41.19 123.913 40.5C123.223 39.81 122.878 38.835 122.878 37.575C122.878 36.735 123.043 36 123.373 35.37C123.673 34.77 124.093 34.32 124.633 34.02C125.143 33.69 125.728 33.525 126.388 33.525C127.318 33.525 128.068 33.825 128.638 34.425C129.208 35.055 129.493 35.97 129.493 37.17C129.493 37.29 129.493 37.47 129.493 37.71H124.048C124.078 38.64 124.333 39.345 124.813 39.825C125.293 40.305 125.908 40.545 126.658 40.545C127.468 40.545 128.128 40.26 128.638 39.69L129.313 40.365C128.653 41.145 127.753 41.535 126.613 41.535ZM128.278 36.765C128.278 36.045 128.098 35.475 127.738 35.055C127.378 34.635 126.898 34.425 126.298 34.425C125.758 34.425 125.278 34.62 124.858 35.01C124.438 35.4 124.183 35.985 124.093 36.765H128.278ZM133.682 27V0.449998H135.032V27H133.682ZM137.732 27V0.449998H140.432V27H137.732ZM143.132 27V0.449998H147.182V27H143.132ZM140.882 41.535C140.642 41.535 140.417 41.445 140.207 41.265C140.027 41.055 139.937 40.83 139.937 40.59C139.937 40.32 140.027 40.095 140.207 39.915C140.417 39.735 140.642 39.645 140.882 39.645C141.152 39.645 141.377 39.735 141.557 39.915C141.767 40.095 141.872 40.32 141.872 40.59C141.872 40.83 141.767 41.055 141.557 41.265C141.377 41.445 141.152 41.535 140.882 41.535ZM148.535 27V0.449998H149.885V27H148.535ZM155.285 27V0.449998H157.985V27H155.285ZM159.335 27V0.449998H160.685V27H159.335ZM153.44 40.365H155.42V34.695H153.53V33.705H156.59V40.365H158.39V41.355H153.44V40.365ZM155.96 32.085C155.72 32.085 155.51 32.01 155.33 31.86C155.18 31.68 155.105 31.47 155.105 31.23C155.105 30.99 155.18 30.795 155.33 30.645C155.48 30.465 155.69 30.375 155.96 30.375C156.17 30.375 156.365 30.465 156.545 30.645C156.725 30.825 156.815 31.02 156.815 31.23C156.815 31.47 156.725 31.68 156.545 31.86C156.365 32.01 156.17 32.085 155.96 32.085ZM163.389 27V0.449998H166.089V27H163.389ZM171.489 27V0.449998H172.839V27H171.489ZM174.189 27V0.449998H175.539V27H174.189ZM167.844 33.705H169.014V35.055C169.314 34.605 169.689 34.23 170.139 33.93C170.589 33.66 171.069 33.525 171.579 33.525C172.269 33.525 172.824 33.78 173.244 34.29C173.634 34.83 173.829 35.64 173.829 36.72V41.355H172.659V36.765C172.659 35.985 172.539 35.43 172.299 35.1C172.029 34.74 171.684 34.56 171.264 34.56C170.904 34.56 170.559 34.665 170.229 34.875C169.869 35.085 169.569 35.37 169.329 35.73C169.119 36.09 169.014 36.495 169.014 36.945V41.355H167.844V33.705ZM178.242 27V0.449998H179.592V27H178.242ZM180.942 27V0.449998H183.642V27H180.942ZM189.042 27V0.449998H190.392V27H189.042ZM184.182 34.65H182.517V33.705H184.182V33.075C184.182 32.085 184.437 31.35 184.947 30.87C185.457 30.39 186.147 30.15 187.017 30.15C187.497 30.15 187.947 30.225 188.367 30.375C188.787 30.555 189.132 30.825 189.402 31.185L188.772 32.085L188.637 32.22L188.547 32.13C188.547 32.1 188.547 32.055 188.547 31.995C188.517 31.935 188.487 31.86 188.457 31.77C188.397 31.68 188.322 31.605 188.232 31.545C188.082 31.395 187.917 31.275 187.737 31.185C187.557 31.125 187.317 31.095 187.017 31.095C186.507 31.095 186.102 31.26 185.802 31.59C185.502 31.89 185.352 32.385 185.352 33.075V33.705H187.872V34.65H185.352V41.355H184.182V34.65ZM193.096 27V0.449998H194.446V27H193.096ZM198.496 27V0.449998H203.896V27H198.496ZM205.246 27V0.449998H206.596V27H205.246ZM200.521 41.49C199.831 41.49 199.216 41.325 198.676 40.995C198.166 40.665 197.761 40.2 197.461 39.6C197.131 39 196.966 38.31 196.966 37.53C196.966 36.75 197.131 36.06 197.461 35.46C197.761 34.86 198.166 34.395 198.676 34.065C199.216 33.705 199.831 33.525 200.521 33.525C201.211 33.525 201.811 33.705 202.321 34.065C202.861 34.395 203.281 34.86 203.581 35.46C203.881 36.06 204.031 36.75 204.031 37.53C204.031 38.31 203.881 39 203.581 39.6C203.281 40.2 202.861 40.665 202.321 40.995C201.811 41.325 201.211 41.49 200.521 41.49ZM200.521 40.5C200.941 40.5 201.331 40.365 201.691 40.095C202.021 39.855 202.291 39.51 202.501 39.06C202.681 38.58 202.771 38.055 202.771 37.485C202.771 36.615 202.561 35.91 202.141 35.37C201.721 34.83 201.181 34.56 200.521 34.56C199.861 34.56 199.321 34.83 198.901 35.37C198.481 35.91 198.271 36.615 198.271 37.485C198.271 38.055 198.361 38.58 198.541 39.06C198.751 39.51 199.021 39.855 199.351 40.095C199.681 40.365 200.071 40.5 200.521 40.5Z" fill="#3E3E3E"/>
<defs>
<linearGradient id="paint0_linear_58_457" x1="104" y1="45" x2="104" y2="57" gradientUnits="userSpaceOnUse">
<stop stop-color="#16C99E"/>
<stop offset="1" stop-color="#1653C9"/>
</linearGradient>
</defs>
</svg>
